<?xml version="1.0" encoding="utf-8"?>
<!-- Generator: Adobe Illustrator 16.0.0, SVG Export Plug-In . SVG Version: 6.00 Build 0)  -->
<!DOCTYPE svg PUBLIC "-//W3C//DTD SVG 1.0//EN" "http://www.w3.org/TR/2001/REC-SVG-20010904/DTD/svg10.dtd">
<svg version="1.0" id="Layer_1" xmlns="http://www.w3.org/2000/svg" xmlns:xlink="http://www.w3.org/1999/xlink" x="0px" y="0px"
	 width="100px" height="100px" viewBox="0 0 100 100" enable-background="new 0 0 100 100" xml:space="preserve">
<path d="M73.333,30V10h-6.666v20H33.333V10h-6.666v20H10v60h80V30H73.333z M55.144,83.334l2.305-2.309
	c3.401-3.395,3.404-8.906,0-12.305l-3.073-3.076c-1.699-1.699-2.552-3.926-2.552-6.154c-2.881,2.883-4.658,6.861-4.658,11.256v2.588
	c-2.551,0-4.615-2.066-4.615-4.613c-3.398,3.398-3.399,8.906-0.001,12.305l2.306,2.309H33.333V66.668C33.333,57.461,40.796,50,50,50
	c9.206,0,16.667,7.461,16.667,16.668v16.666H55.144z M83.333,83.334h-10V66.668c0-12.889-10.445-23.334-23.333-23.334
	c-12.886,0-23.333,10.445-23.333,23.334v16.666h-10V36.667h66.666V83.334z"/>
</svg>
