<svg xmlns="http://www.w3.org/2000/svg" xmlns:xlink="http://www.w3.org/1999/xlink" version="1.1" x="0px" y="0px" viewBox="0 0 10 12.5" enable-background="new 0 0 10 10" xml:space="preserve"><g><path d="M4.056,6.749c-0.1,0-0.182,0.082-0.182,0.182V8.13c0,0.101,0.082,0.182,0.182,0.182c0.101,0,0.183-0.082,0.183-0.182V6.931   C4.238,6.831,4.156,6.749,4.056,6.749z M4.161,8.13c0,0.058-0.047,0.105-0.105,0.105c-0.058,0-0.105-0.047-0.105-0.105V6.931   c0-0.058,0.048-0.104,0.105-0.104c0.059,0,0.105,0.046,0.105,0.104V8.13z"/><path d="M5.159,6.749c-0.101,0-0.183,0.082-0.183,0.182V8.13c0,0.101,0.082,0.182,0.183,0.182c0.1,0,0.182-0.082,0.182-0.182V6.931   C5.341,6.831,5.259,6.749,5.159,6.749z M5.265,8.13c0,0.058-0.047,0.105-0.105,0.105S5.054,8.188,5.054,8.13V6.931   c0-0.058,0.047-0.104,0.105-0.104s0.105,0.046,0.105,0.104V8.13z"/><path d="M4.601,4.262c-0.566,0-1.027,0.461-1.027,1.027c0,0.566,0.461,1.027,1.027,1.027s1.027-0.46,1.027-1.027   C5.628,4.723,5.167,4.262,4.601,4.262z M4.601,6.238c-0.523,0-0.949-0.426-0.949-0.95c0-0.523,0.426-0.95,0.949-0.95   s0.95,0.426,0.95,0.95C5.551,5.813,5.124,6.238,4.601,6.238z"/><path d="M4.601,4.581c-0.39,0-0.707,0.317-0.707,0.708s0.317,0.708,0.707,0.708c0.391,0,0.707-0.317,0.707-0.708   S4.991,4.581,4.601,4.581z M4.601,5.919c-0.348,0-0.631-0.283-0.631-0.63s0.283-0.63,0.631-0.63s0.631,0.283,0.631,0.63   S4.948,5.919,4.601,5.919z"/><path d="M4.601,4.999c-0.159,0-0.289,0.13-0.289,0.29c0,0.16,0.13,0.29,0.289,0.29c0.16,0,0.289-0.13,0.289-0.29   C4.89,5.129,4.761,4.999,4.601,4.999z M4.601,5.501c-0.117,0-0.212-0.095-0.212-0.212s0.095-0.212,0.212-0.212   s0.213,0.095,0.213,0.212S4.718,5.501,4.601,5.501z"/><path d="M7.622,0.979C7.614,0.972,7.604,0.968,7.594,0.968L5.334,1.01C5.116,1.002,5.059,0.906,5.058,0.905   c-0.006-0.013-0.02-0.021-0.033-0.021H4.309c-0.021,0-0.038,0.017-0.038,0.039v0.262v0.262c0,0.018,0.012,0.032,0.028,0.037v0.694   c0,0.004,0.001,0.006,0.001,0.01C3.794,2.321,3.417,2.774,3.4,3.317H3.264c-0.021,0-0.038,0.017-0.038,0.039v0.305   c0,0.021,0.017,0.039,0.038,0.039h0.142v0.514c-0.07,0.11-0.18,0.248-0.303,0.309H2.648c-0.021,0-0.038,0.018-0.038,0.039v0.437   H2.405c-0.022,0-0.039,0.018-0.039,0.039v0.553c0,0.021,0.017,0.039,0.039,0.039H2.61v0.386c0,0.021,0.018,0.038,0.038,0.038h0.455   c0.029,0.013,0.171,0.08,0.302,0.225v2.245H3.167c-0.021,0-0.039,0.018-0.039,0.039v0.515c0,0.021,0.018,0.039,0.039,0.039h2.868   c0.021,0,0.038-0.018,0.038-0.039V8.562c0-0.021-0.018-0.039-0.038-0.039H5.81V6.278c0.13-0.144,0.272-0.211,0.302-0.225h0.455   c0.021,0,0.038-0.017,0.038-0.038V5.629h0.206c0.021,0,0.038-0.017,0.038-0.039V5.038c0-0.021-0.017-0.039-0.038-0.039H6.604V4.562   c0-0.021-0.018-0.039-0.038-0.039H6.112C5.989,4.461,5.882,4.324,5.81,4.214V3.7h0.143c0.021,0,0.038-0.017,0.038-0.039V3.356   c0-0.022-0.017-0.039-0.038-0.039H5.814c-0.017-0.543-0.394-0.996-0.9-1.129c0.001-0.003,0.003-0.006,0.003-0.01V1.486h0.107   c0.014,0,0.026-0.008,0.033-0.02c0.001-0.001,0.059-0.097,0.275-0.104l2.261,0.042c0.01-0.001,0.021-0.004,0.028-0.011   c0.007-0.007,0.012-0.017,0.012-0.028V1.185V1.006C7.634,0.996,7.629,0.986,7.622,0.979z M2.442,5.552V5.077H2.61v0.476H2.442z    M2.688,5.591V5.038V4.601h0.386v1.376H2.688V5.591z M5.997,9.038H3.205V8.601h0.239h2.327h0.226V9.038z M6.772,5.077v0.476H6.604   V5.077H6.772z M6.528,5.038v0.553v0.386H6.142V4.601h0.387V5.038z M5.739,4.246c0.072,0.116,0.188,0.266,0.325,0.34V5.99   C6.009,6.017,5.87,6.093,5.743,6.238c-0.007,0.007-0.01,0.017-0.01,0.026v2.26H3.481v-2.26c0-0.009-0.002-0.019-0.009-0.026   C3.345,6.093,3.206,6.017,3.15,5.99V4.586c0.138-0.075,0.253-0.225,0.325-0.34C3.479,4.24,3.481,4.233,3.481,4.225V3.7h2.252v0.525   C5.733,4.233,5.735,4.24,5.739,4.246z M5.913,3.623H5.771H3.444H3.302V3.395h0.135h2.342h0.135V3.623z M5.739,3.317H3.476   c0.021-0.606,0.521-1.093,1.132-1.093S5.718,2.711,5.739,3.317z M4.839,2.17C4.764,2.155,4.687,2.147,4.607,2.147   S4.45,2.155,4.376,2.17V1.486h0.463V2.17z M7.556,1.325L5.332,1.284C5.126,1.291,5.036,1.37,5.004,1.409H4.878H4.347V1.185V0.962   h0.657C5.036,1,5.126,1.08,5.333,1.087l2.223-0.041v0.139V1.325z"/></g><text x="0" y="25" fill="#000000" font-size="5px" font-weight="bold" font-family="'Helvetica Neue', Helvetica, Arial-Unicode, Arial, Sans-serif">Created by verry poernomo</text><text x="0" y="30" fill="#000000" font-size="5px" font-weight="bold" font-family="'Helvetica Neue', Helvetica, Arial-Unicode, Arial, Sans-serif">from the Noun Project</text></svg>