<?xml version="1.0" encoding="utf-8"?>
<!-- Generator: Adobe Illustrator 16.0.0, SVG Export Plug-In . SVG Version: 6.00 Build 0)  -->
<!DOCTYPE svg PUBLIC "-//W3C//DTD SVG 1.0//EN" "http://www.w3.org/TR/2001/REC-SVG-20010904/DTD/svg10.dtd">
<svg version="1.0" id="Layer_1" xmlns="http://www.w3.org/2000/svg" xmlns:xlink="http://www.w3.org/1999/xlink" x="0px" y="0px"
	 width="708.66px" height="708.66px" viewBox="0 0 708.66 708.66" enable-background="new 0 0 708.66 708.66" xml:space="preserve">
<g>
	<path fill="none" stroke="#373431" stroke-width="12" stroke-linecap="round" stroke-linejoin="round" stroke-miterlimit="10" d="
		M549.187,413.03V301.191V413.03z"/>
	<path fill="none" stroke="#373431" stroke-width="12" stroke-linecap="round" stroke-linejoin="round" stroke-miterlimit="10" d="
		M513.758,401.312v-100.12V401.312z"/>
	<path fill="none" stroke="#373431" stroke-width="12" stroke-linecap="round" stroke-linejoin="round" stroke-miterlimit="10" d="
		M478.336,387.909v-86.718V387.909z"/>
	<path fill="none" stroke="#373431" stroke-width="12" stroke-linecap="round" stroke-linejoin="round" stroke-miterlimit="10" d="
		M194.867,301.204c0,107.651,87.234,194.845,194.875,194.845c107.609,0,194.891-87.193,194.891-194.833v122.337
		c-40.773,64.782-112.695,107.944-194.891,107.944c-127.195,0-230.297-103.11-230.297-230.306S262.547,70.873,389.742,70.873
		s230.313,103.123,230.313,230.318c0,0.024,0,230.306,0,230.306h-35.422V301.216c0-100.987-78.32-184.03-175.336-193.906v-9.862
		h-39.063v9.862C271.75,117.101,194.867,200.155,194.867,301.204z"/>
	
		<rect x="370.234" y="97.447" fill="none" stroke="#373431" stroke-width="12" stroke-linecap="round" stroke-linejoin="round" stroke-miterlimit="10" width="39.063" height="150.583"/>
	<path fill="none" stroke="#373431" stroke-width="12" stroke-linecap="round" stroke-linejoin="round" stroke-miterlimit="10" d="
		M409.297,143.063v35.803c59.18,9.4,104.461,60.521,104.461,122.35c0,68.48-55.516,123.997-124.016,123.997
		c-68.484,0-124-55.517-124-123.997c0-61.852,45.289-112.975,104.492-122.35v-35.814c-78.836,9.644-139.914,76.708-139.914,158.164
		c0,88.061,71.359,159.409,159.422,159.409c88.055,0,159.445-71.349,159.445-159.409C549.187,219.76,488.101,152.72,409.297,143.063
		z"/>
	<path fill="none" stroke="#373431" stroke-width="12" stroke-linecap="round" stroke-linejoin="round" stroke-miterlimit="10" d="
		M409.297,107.31v35.754c78.805,9.656,139.891,76.696,139.891,158.152c0,88.061-71.391,159.409-159.445,159.409
		c-88.063,0-159.422-71.349-159.422-159.409c0-81.456,61.078-148.521,139.914-158.164V107.31
		c-98.461,9.791-175.344,92.857-175.344,193.906c0,107.64,87.234,194.833,194.852,194.833c107.609,0,194.867-87.193,194.867-194.833
		C584.609,200.18,507.726,117.112,409.297,107.31z"/>
	<path fill="none" stroke="#373431" stroke-width="12" stroke-linecap="round" stroke-linejoin="round" stroke-miterlimit="10" d="
		M409.297,178.854v35.974c39.5,8.911,69.039,44.164,69.039,86.351c0,48.926-39.672,88.586-88.57,88.586
		c-48.953,0-88.602-39.66-88.602-88.586c0-42.199,29.539-77.439,69.07-86.351v-35.974c-59.203,9.387-104.492,60.497-104.492,122.324
		c0,68.493,55.516,124.021,124.023,124.021c68.477,0,123.992-55.528,123.992-124.021
		C513.758,239.364,468.476,188.241,409.297,178.854z"/>
	
		<rect x="566.929" y="531.497" fill="none" stroke="#373431" stroke-width="12" stroke-linecap="round" stroke-linejoin="round" stroke-miterlimit="10" width="70.852" height="26.563"/>
	
		<polygon fill="none" stroke="#373431" stroke-width="12" stroke-linecap="round" stroke-linejoin="round" stroke-miterlimit="10" points="
		611.219,637.794 593.492,637.794 584.633,602.37 584.633,558.06 620.078,558.06 620.078,602.37 	"/>
	<path fill="none" stroke="#373431" stroke-width="12" stroke-linecap="round" stroke-linejoin="round" stroke-miterlimit="10" d="
		M70.875,602.37c48.922,0,88.57-39.672,88.57-88.597V301.204c0,45.03,13.109,86.875,35.422,122.373v90.196
		c0,68.479-55.516,124.021-123.992,124.021V602.37z"/>
</g>
</svg>
