<svg xmlns="http://www.w3.org/2000/svg" xmlns:xlink="http://www.w3.org/1999/xlink" version="1.1" x="0px" y="0px" viewBox="0 0 10 12.5" enable-background="new 0 0 10 10" xml:space="preserve"><g><path d="M3.487,4.696c-0.099,0-0.177,0.056-0.177,0.127c0,0.07,0.078,0.126,0.177,0.126s0.177-0.056,0.177-0.126   C3.664,4.752,3.586,4.696,3.487,4.696z M3.487,4.872c-0.061,0-0.1-0.029-0.1-0.049c0-0.021,0.039-0.05,0.1-0.05   c0.062,0,0.1,0.029,0.1,0.05C3.587,4.843,3.549,4.872,3.487,4.872z"/><path d="M2.602,8.782h5.814c0.021,0,0.038-0.018,0.038-0.038V2.415V2.203V1.257c0-0.021-0.017-0.038-0.038-0.038H2.602   c-0.021,0-0.039,0.017-0.039,0.038v7.487C2.563,8.765,2.58,8.782,2.602,8.782z M3.174,4.138c0-0.017,0.014-0.029,0.03-0.029   s0.03,0.013,0.03,0.029c0,0.018-0.014,0.03-0.03,0.03S3.174,4.155,3.174,4.138z M3.379,4.145c0,0.009,0.002,0.017,0.004,0.023   H3.307c0.002-0.007,0.004-0.015,0.005-0.023H3.379z M3.659,4.145C3.66,4.153,3.661,4.161,3.664,4.168H3.588   C3.59,4.161,3.592,4.153,3.592,4.145H3.659z M3.766,4.168c-0.016,0-0.029-0.013-0.029-0.03c0-0.017,0.014-0.029,0.029-0.029   c0.018,0,0.031,0.013,0.031,0.029C3.797,4.155,3.783,4.168,3.766,4.168z M3.516,4.138c0,0.018-0.014,0.03-0.03,0.03   s-0.03-0.013-0.03-0.03c0-0.017,0.014-0.029,0.03-0.029S3.516,4.121,3.516,4.138z M3.323,4.251h0.324v0.065H3.552H3.418H3.323   V4.251z M3.457,4.393h0.057v0.021H3.457V4.393z M3.418,4.491h0.134H3.68V4.57H3.291V4.491H3.418z M5.673,6.999   c0.122,0,0.222-0.099,0.222-0.222l0.001-3.631L5.895,3.131c0-0.207,0.169-0.375,0.376-0.375c0.208,0,0.376,0.168,0.376,0.375v3.624   c0,0.123,0.1,0.223,0.223,0.223c0.122,0,0.222-0.1,0.222-0.223V3.131c0-0.004,0.001-0.01,0.003-0.021   c0.011-0.199,0.175-0.354,0.373-0.354c0.207,0,0.377,0.168,0.377,0.375v2.885H7.689V3.131c0-0.121-0.1-0.222-0.223-0.222   S7.245,3.01,7.245,3.131v3.624c0,0.006-0.001,0.011-0.003,0.022C7.231,6.976,7.066,7.132,6.869,7.132   c-0.199,0-0.363-0.156-0.375-0.361c-0.001-0.005-0.002-0.01-0.002-0.016V3.131c0-0.121-0.1-0.222-0.222-0.222   S6.049,3.01,6.048,3.14l0.001,3.638c0,0.006,0,0.012-0.002,0.021C6.035,6.998,5.871,7.154,5.673,7.154S5.311,6.998,5.299,6.793   c-0.002-0.004-0.002-0.01-0.002-0.016V3.153c0-0.122-0.1-0.222-0.223-0.222c-0.121,0-0.221,0.1-0.221,0.222v1.3   c0,0.25-0.204,0.453-0.454,0.453L4.04,5.058V4.634L4.393,4.75l0.012,0.002c0.162,0,0.295-0.134,0.295-0.299v-1.3   c0-0.005,0-0.01,0.002-0.021c0.011-0.199,0.176-0.355,0.373-0.355c0.207,0,0.377,0.169,0.377,0.376v3.624   C5.451,6.9,5.551,6.999,5.673,6.999z M7.801,7.485v0.028H7.73V7.485H7.801z M7.803,7.407H7.729L7.681,6.245h0.171L7.803,7.407z    M7.892,6.167H7.641H7.602V6.093H7.93v0.074H7.892z M3.166,4.895H3.008v-0.13h0.158V4.895z M3.008,4.972h0.158v0.095v0.042H3.008   V4.972z M3.243,4.646h0.009h0.466h0.01v0.382H3.243V4.646z M3.963,4.895H3.805v-0.13h0.158V4.895z M3.805,5.066V4.972h0.158v0.137   H3.805V5.066z M3.963,4.687H3.805V4.608V4.579h0.158V4.687z M3.166,4.608v0.078H3.008V4.579h0.158V4.608z M2.931,5.026h-0.29V4.641   h0.29V5.026z M2.641,8.706V5.104h0.29v0.044c0,0.021,0.018,0.038,0.038,0.038h0.235c0.022,0,0.039-0.018,0.039-0.038V5.104h0.484   v0.043c0,0.021,0.018,0.038,0.038,0.038h0.235c0.022,0,0.039-0.018,0.039-0.038V5.142l0.368-0.158   c0.288-0.005,0.521-0.24,0.521-0.53v-1.3c0-0.079,0.064-0.144,0.145-0.144s0.145,0.064,0.145,0.144v3.624   c0,0.011,0.002,0.021,0.003,0.025C5.235,7.043,5.434,7.23,5.673,7.23s0.437-0.188,0.45-0.421c0.002-0.011,0.003-0.021,0.003-0.032   V3.153c0-0.004-0.001-0.008-0.001-0.009l0.001-0.014c0-0.079,0.065-0.144,0.145-0.144c0.08,0,0.146,0.064,0.146,0.144v3.624   c0,0.011,0,0.021,0.002,0.026c0.014,0.239,0.211,0.428,0.451,0.428c0.238,0,0.438-0.188,0.45-0.422   C7.32,6.776,7.322,6.766,7.322,6.755V3.131c0-0.079,0.064-0.144,0.145-0.144s0.145,0.064,0.145,0.144v2.885H7.563   c-0.021,0-0.038,0.018-0.038,0.039v0.151c0,0.021,0.017,0.039,0.038,0.039h0.04l0.051,1.202H7.653v0.104   c0,0.022,0.018,0.039,0.038,0.039H7.84c0.021,0,0.039-0.017,0.039-0.039V7.447l0,0l0.049-1.202h0.041   c0.021,0,0.039-0.018,0.039-0.039V6.055c0-0.021-0.018-0.039-0.039-0.039H7.92V3.131c0-0.249-0.203-0.453-0.453-0.453   c-0.238,0-0.438,0.188-0.45,0.423c-0.002,0.01-0.003,0.021-0.003,0.03v3.624c0,0.08-0.064,0.146-0.145,0.146   S6.725,6.835,6.725,6.755V3.131c0-0.249-0.203-0.453-0.454-0.453c-0.249,0-0.453,0.204-0.453,0.453c0,0.005,0.001,0.009,0.001,0.01   L5.817,6.777c0,0.081-0.065,0.146-0.145,0.146S5.528,6.858,5.528,6.777V3.153c0-0.249-0.204-0.453-0.454-0.453   c-0.238,0-0.438,0.188-0.45,0.423c-0.001,0.01-0.003,0.021-0.003,0.03v1.3c0,0.118-0.096,0.219-0.211,0.223L4.04,4.553V4.54   c0-0.021-0.017-0.038-0.039-0.038H3.766c-0.002,0-0.006,0-0.009,0.001v-0.05c0-0.021-0.017-0.039-0.039-0.039H3.59V4.393h0.096   c0.021,0,0.039-0.018,0.039-0.039V4.246h0.041c0.061,0,0.107-0.049,0.107-0.108S3.826,4.03,3.766,4.03   c-0.031,0-0.061,0.015-0.08,0.038H3.566C3.547,4.045,3.518,4.03,3.485,4.03S3.424,4.045,3.404,4.068H3.285   C3.266,4.045,3.237,4.03,3.204,4.03c-0.06,0-0.106,0.048-0.106,0.107s0.047,0.108,0.106,0.108h0.042v0.107   c0,0.021,0.018,0.039,0.038,0.039h0.097v0.021H3.252c-0.021,0-0.038,0.018-0.038,0.039v0.05c-0.003-0.001-0.006-0.001-0.01-0.001   H2.969c-0.021,0-0.038,0.017-0.038,0.038v0.023h-0.29V2.454h5.736v6.252H2.641z M8.377,2.377H2.641V2.241h5.736V2.377z    M8.377,1.296v0.868H2.641V1.296H8.377z"/><path d="M8.673,0.958H2.345c-0.021,0-0.038,0.018-0.038,0.039v3.566H2.074c-0.135,0-0.244-0.108-0.244-0.244V0.997   c0-0.021-0.018-0.039-0.039-0.039H1.328c-0.021,0-0.039,0.018-0.039,0.039v3.322c0,0.433,0.353,0.784,0.785,0.784h0.232v3.9   c0,0.021,0.017,0.038,0.038,0.038h6.328c0.021,0,0.038-0.017,0.038-0.038V0.997C8.711,0.976,8.694,0.958,8.673,0.958z M2.074,5.026   c-0.391,0-0.707-0.316-0.707-0.707V1.036h0.386v3.283c0,0.178,0.144,0.321,0.321,0.321h0.232v0.386H2.074z M8.635,8.965H2.383   V1.036h6.252V8.965z"/><path d="M5.064,3.116c-0.021,0-0.038,0.018-0.038,0.039v0.347c0,0.021,0.018,0.039,0.038,0.039c0.021,0,0.039-0.018,0.039-0.039   V3.155C5.104,3.134,5.086,3.116,5.064,3.116z"/><path d="M6.262,3.116c-0.021,0-0.039,0.018-0.039,0.039v0.347c0,0.021,0.018,0.039,0.039,0.039c0.021,0,0.038-0.018,0.038-0.039   V3.155C6.3,3.134,6.282,3.116,6.262,3.116z"/><path d="M7.467,3.116c-0.021,0-0.038,0.018-0.038,0.039v0.347c0,0.021,0.017,0.039,0.038,0.039s0.039-0.018,0.039-0.039V3.155   C7.506,3.134,7.488,3.116,7.467,3.116z"/></g><text x="0" y="25" fill="#000000" font-size="5px" font-weight="bold" font-family="'Helvetica Neue', Helvetica, Arial-Unicode, Arial, Sans-serif">Created by verry poernomo</text><text x="0" y="30" fill="#000000" font-size="5px" font-weight="bold" font-family="'Helvetica Neue', Helvetica, Arial-Unicode, Arial, Sans-serif">from the Noun Project</text></svg>