<svg xmlns="http://www.w3.org/2000/svg" xmlns:xlink="http://www.w3.org/1999/xlink" version="1.1" x="0px" y="0px" viewBox="0 0 10 12.5" enable-background="new 0 0 10 10" xml:space="preserve"><g><path d="M2.487,9.006h5.024c0.021,0,0.039-0.019,0.039-0.039V2.8c0-0.021-0.018-0.039-0.039-0.039H2.487   c-0.021,0-0.038,0.018-0.038,0.039v6.167C2.449,8.987,2.466,9.006,2.487,9.006z M2.526,2.839h4.947v6.089H2.526V2.839z"/><path d="M7.726,2.526H2.274c-0.022,0-0.039,0.017-0.039,0.038v6.638c0,0.021,0.017,0.038,0.039,0.038h5.451   c0.021,0,0.039-0.017,0.039-0.038V2.564C7.765,2.543,7.747,2.526,7.726,2.526z M7.688,9.163H2.312V2.603h5.376V9.163z"/><path d="M6.833,3.32H3.167c-0.021,0-0.039,0.018-0.039,0.038v1.774c0,0.021,0.018,0.039,0.039,0.039h3.666   c0.021,0,0.039-0.018,0.039-0.039V3.358C6.872,3.338,6.854,3.32,6.833,3.32z M6.795,5.095h-3.59V3.397h3.59V5.095z"/><path d="M3.962,4.028c0.081,0,0.146-0.065,0.146-0.146S4.043,3.737,3.962,3.737c-0.08,0-0.146,0.065-0.146,0.146   S3.882,4.028,3.962,4.028z M3.962,3.814c0.039,0,0.068,0.03,0.068,0.068S4.001,3.951,3.962,3.951c-0.037,0-0.068-0.03-0.068-0.068   S3.925,3.814,3.962,3.814z"/><path d="M3.724,4.172H4.2c0.021,0,0.039-0.018,0.039-0.039S4.222,4.095,4.2,4.095H3.724c-0.021,0-0.038,0.017-0.038,0.038   S3.703,4.172,3.724,4.172z"/><path d="M3.816,4.562c0,0.08,0.065,0.146,0.146,0.146c0.081,0,0.146-0.066,0.146-0.146c0-0.081-0.065-0.146-0.146-0.146   C3.882,4.416,3.816,4.48,3.816,4.562z M4.03,4.562C4.03,4.6,4.001,4.63,3.962,4.63c-0.037,0-0.068-0.03-0.068-0.068   c0-0.037,0.031-0.068,0.068-0.068C4.001,4.493,4.03,4.524,4.03,4.562z"/><path d="M3.724,4.85H4.2c0.021,0,0.039-0.017,0.039-0.038c0-0.021-0.018-0.039-0.039-0.039H3.724c-0.021,0-0.038,0.019-0.038,0.039   C3.686,4.833,3.703,4.85,3.724,4.85z"/><path d="M4.653,4.028c0.081,0,0.146-0.065,0.146-0.146S4.734,3.737,4.653,3.737c-0.08,0-0.145,0.065-0.145,0.146   S4.573,4.028,4.653,4.028z M4.653,3.814c0.039,0,0.069,0.03,0.069,0.068s-0.03,0.068-0.069,0.068c-0.037,0-0.068-0.03-0.068-0.068   S4.616,3.814,4.653,3.814z"/><path d="M4.416,4.172h0.476c0.021,0,0.039-0.018,0.039-0.039S4.913,4.095,4.892,4.095H4.416c-0.021,0-0.038,0.017-0.038,0.038   S4.395,4.172,4.416,4.172z"/><path d="M4.509,4.562c0,0.08,0.064,0.146,0.145,0.146c0.081,0,0.146-0.066,0.146-0.146c0-0.081-0.065-0.146-0.146-0.146   C4.573,4.416,4.509,4.48,4.509,4.562z M4.723,4.562c0,0.038-0.03,0.068-0.069,0.068c-0.037,0-0.068-0.03-0.068-0.068   c0-0.037,0.031-0.068,0.068-0.068C4.692,4.493,4.723,4.524,4.723,4.562z"/><path d="M4.416,4.85h0.476c0.021,0,0.039-0.017,0.039-0.038c0-0.021-0.018-0.039-0.039-0.039H4.416   c-0.021,0-0.038,0.019-0.038,0.039C4.378,4.833,4.395,4.85,4.416,4.85z"/><path d="M5.346,4.028c0.081,0,0.146-0.065,0.146-0.146S5.427,3.737,5.346,3.737c-0.08,0-0.146,0.065-0.146,0.146   S5.266,4.028,5.346,4.028z M5.346,3.814c0.038,0,0.069,0.03,0.069,0.068S5.384,3.951,5.346,3.951s-0.069-0.03-0.069-0.068   S5.308,3.814,5.346,3.814z"/><path d="M5.108,4.172h0.475c0.022,0,0.039-0.018,0.039-0.039S5.605,4.095,5.583,4.095H5.108c-0.021,0-0.039,0.017-0.039,0.038   S5.087,4.172,5.108,4.172z"/><path d="M5.2,4.562c0,0.08,0.065,0.146,0.146,0.146c0.081,0,0.146-0.066,0.146-0.146c0-0.081-0.064-0.146-0.146-0.146   C5.266,4.416,5.2,4.48,5.2,4.562z M5.415,4.562c0,0.038-0.031,0.068-0.069,0.068S5.276,4.6,5.276,4.562   c0-0.037,0.031-0.068,0.069-0.068S5.415,4.524,5.415,4.562z"/><path d="M5.108,4.85h0.475c0.022,0,0.039-0.017,0.039-0.038c0-0.021-0.017-0.039-0.039-0.039H5.108   c-0.021,0-0.039,0.019-0.039,0.039C5.069,4.833,5.087,4.85,5.108,4.85z"/><path d="M6.038,4.028c0.08,0,0.145-0.065,0.145-0.146S6.118,3.737,6.038,3.737c-0.081,0-0.146,0.065-0.146,0.146   S5.957,4.028,6.038,4.028z M6.038,3.814c0.037,0,0.068,0.03,0.068,0.068S6.075,3.951,6.038,3.951c-0.039,0-0.069-0.03-0.069-0.068   S5.999,3.814,6.038,3.814z"/><path d="M5.8,4.172h0.476c0.021,0,0.038-0.018,0.038-0.039S6.297,4.095,6.275,4.095H5.8c-0.021,0-0.039,0.017-0.039,0.038   S5.778,4.172,5.8,4.172z"/><path d="M5.892,4.562c0,0.08,0.065,0.146,0.146,0.146c0.08,0,0.145-0.066,0.145-0.146c0-0.081-0.064-0.146-0.145-0.146   C5.957,4.416,5.892,4.48,5.892,4.562z M6.106,4.562c0,0.038-0.031,0.068-0.068,0.068c-0.039,0-0.069-0.03-0.069-0.068   c0-0.037,0.03-0.068,0.069-0.068C6.075,4.493,6.106,4.524,6.106,4.562z"/><path d="M5.8,4.85h0.476c0.021,0,0.038-0.017,0.038-0.038c0-0.021-0.017-0.039-0.038-0.039H5.8c-0.021,0-0.039,0.019-0.039,0.039   C5.761,4.833,5.778,4.85,5.8,4.85z"/><path d="M6.833,5.476H3.167c-0.021,0-0.039,0.018-0.039,0.039v1.023c0,0.021,0.018,0.038,0.039,0.038h3.666   c0.021,0,0.039-0.018,0.039-0.038V5.515C6.872,5.493,6.854,5.476,6.833,5.476z M6.795,6.5h-3.59V5.553h3.59V6.5z"/><path d="M5.825,7.964H5.583c-0.021,0-0.038,0.017-0.038,0.038v0.215c0,0.021,0.018,0.039,0.038,0.039h0.242   c0.021,0,0.038-0.018,0.038-0.039V8.002C5.863,7.98,5.847,7.964,5.825,7.964z M5.786,8.178H5.622V8.041h0.164V8.178z"/><path d="M5.358,7.964h-0.24c-0.021,0-0.039,0.017-0.039,0.038v0.215c0,0.021,0.018,0.039,0.039,0.039h0.24   c0.021,0,0.039-0.018,0.039-0.039V8.002C5.397,7.98,5.38,7.964,5.358,7.964z M5.32,8.178H5.156V8.041H5.32V8.178z"/><path d="M4.534,6.038h0.24c0.021,0,0.039-0.018,0.039-0.039V5.784c0-0.021-0.018-0.038-0.039-0.038h-0.24   c-0.021,0-0.039,0.017-0.039,0.038v0.215C4.495,6.021,4.513,6.038,4.534,6.038z M4.572,5.823h0.163V5.96H4.572V5.823z"/><path d="M5.226,6.038h0.24c0.021,0,0.039-0.018,0.039-0.039V5.784c0-0.021-0.018-0.038-0.039-0.038h-0.24   c-0.021,0-0.039,0.017-0.039,0.038v0.215C5.187,6.021,5.204,6.038,5.226,6.038z M5.264,5.823h0.163V5.96H5.264V5.823z"/><path d="M5.917,6.038h0.24c0.021,0,0.039-0.018,0.039-0.039V5.784c0-0.021-0.018-0.038-0.039-0.038h-0.24   c-0.021,0-0.039,0.017-0.039,0.038v0.215C5.878,6.021,5.896,6.038,5.917,6.038z M5.956,5.823H6.12V5.96H5.956V5.823z"/><path d="M4.249,6.881H3.167c-0.021,0-0.039,0.017-0.039,0.038v0.345c0,0.022,0.018,0.039,0.039,0.039h0.112v0.593   c0,0.014,0.007,0.025,0.019,0.032S3.323,7.936,3.336,7.93L3.47,7.863l0.189,0.068c0.004,0.001,0.009,0.002,0.014,0.002   c0.004,0,0.008-0.001,0.012-0.001l0.219-0.07l0.18,0.069c0.012,0.004,0.025,0.002,0.035-0.005s0.017-0.019,0.017-0.031V7.303h0.114   c0.021,0,0.038-0.017,0.038-0.039V6.919C4.287,6.897,4.27,6.881,4.249,6.881z M3.919,7.784C3.91,7.782,3.901,7.781,3.893,7.783   l-0.22,0.07L3.48,7.784C3.476,7.782,3.472,7.782,3.468,7.782c-0.006,0-0.013,0.001-0.018,0.004L3.356,7.832V7.13h0.701v0.134l0,0   l0,0v0.575L3.919,7.784z M4.21,7.226H4.135V7.092c0-0.021-0.017-0.038-0.038-0.038H3.318c-0.021,0-0.039,0.017-0.039,0.038v0.134   H3.205V6.957H4.21V7.226z"/><path d="M3.917,7.226h-0.42c-0.021,0-0.038,0.017-0.038,0.038c0,0.022,0.017,0.039,0.038,0.039h0.42   c0.021,0,0.039-0.017,0.039-0.039C3.956,7.242,3.938,7.226,3.917,7.226z"/><path d="M3.917,7.515h-0.42c-0.021,0-0.038,0.017-0.038,0.038s0.017,0.039,0.038,0.039h0.42c0.021,0,0.039-0.018,0.039-0.039   S3.938,7.515,3.917,7.515z"/><path d="M5.187,1.337C5.005,1.189,5.043,0.912,5.043,0.91c0.003-0.015-0.005-0.03-0.018-0.038s-0.029-0.008-0.042,0   C4.96,0.888,4.417,1.257,4.388,1.692c0,0.008-0.027,0.202,0.092,0.34c0.074,0.086,0.186,0.129,0.332,0.129   c0.01,0,0.021-0.001,0.032-0.001c0.239-0.01,0.361-0.113,0.365-0.117c0.13-0.104,0.193-0.221,0.19-0.344   C5.394,1.49,5.193,1.342,5.187,1.337z M5.028,2.007C4.999,2.054,4.937,2.063,4.917,2.065C4.823,2.026,4.766,1.969,4.745,1.893   C4.72,1.803,4.747,1.7,4.784,1.614c-0.006,0.203,0.1,0.244,0.117,0.251C4.96,1.878,5.006,1.861,5.034,1.834   C5.056,1.909,5.054,1.968,5.028,2.007z M5.159,1.984c0,0-0.017,0.013-0.049,0.03c0.029-0.073,0.018-0.17-0.035-0.29   C5.069,1.709,5.052,1.7,5.034,1.702C5.018,1.705,5.005,1.719,5.002,1.735c-0.001,0.007-0.009,0.057-0.06,0.057   c-0.007,0-0.016-0.001-0.02-0.002c-0.002,0-0.117-0.05-0.027-0.371c0.006-0.018-0.004-0.036-0.02-0.045   C4.859,1.366,4.839,1.371,4.827,1.385C4.819,1.397,4.605,1.68,4.671,1.914C4.688,1.981,4.729,2.038,4.79,2.082   c-0.113-0.004-0.197-0.037-0.252-0.1C4.442,1.871,4.464,1.705,4.465,1.7c0.021-0.316,0.354-0.605,0.497-0.717   C4.963,1.092,4.989,1.276,5.14,1.397c0.002,0.002,0.178,0.132,0.183,0.304C5.325,1.8,5.271,1.894,5.159,1.984z"/><path d="M3.921,2.267h1.941c0.021,0,0.039-0.018,0.039-0.039V0.799c0-0.021-0.018-0.039-0.039-0.039H3.921   c-0.021,0-0.038,0.019-0.038,0.039v1.429C3.883,2.249,3.9,2.267,3.921,2.267z M3.96,0.838h1.864v1.352H3.96V0.838z"/><path d="M6.833,6.881H5.052c-0.021,0-0.039,0.017-0.039,0.038V7.74c0,0.021,0.018,0.039,0.039,0.039h1.781   c0.021,0,0.039-0.018,0.039-0.039V6.919C6.872,6.897,6.854,6.881,6.833,6.881z M6.795,7.701H5.09V6.957h1.705V7.701z"/><path d="M5.321,7.231h0.383c0.021,0,0.039-0.018,0.039-0.038c0-0.022-0.018-0.039-0.039-0.039H5.321   c-0.021,0-0.039,0.017-0.039,0.039C5.282,7.214,5.3,7.231,5.321,7.231z"/><path d="M5.321,7.505h1.242c0.021,0,0.038-0.017,0.038-0.038S6.584,7.428,6.563,7.428H5.321c-0.021,0-0.039,0.018-0.039,0.039   S5.3,7.505,5.321,7.505z"/><path d="M5.862,7.231h0.344c0.021,0,0.039-0.018,0.039-0.038c0-0.022-0.018-0.039-0.039-0.039H5.862   c-0.021,0-0.038,0.017-0.038,0.039C5.824,7.214,5.841,7.231,5.862,7.231z"/></g><text x="0" y="25" fill="#000000" font-size="5px" font-weight="bold" font-family="'Helvetica Neue', Helvetica, Arial-Unicode, Arial, Sans-serif">Created by verry poernomo</text><text x="0" y="30" fill="#000000" font-size="5px" font-weight="bold" font-family="'Helvetica Neue', Helvetica, Arial-Unicode, Arial, Sans-serif">from the Noun Project</text></svg>