<svg xmlns="http://www.w3.org/2000/svg" xmlns:xlink="http://www.w3.org/1999/xlink" version="1.1" x="0px" y="0px" viewBox="0 0 3873 4841.25" style="enable-background:new 0 0 3873 3873;" xml:space="preserve"><g><path d="M3053.8,2176.5H819.2c-33.4,0-60.5-27.1-60.5-60.5v-268.7c0-33.4,27.1-60.5,60.5-60.5s60.5,27.1,60.5,60.5v208.2h2113.6   v-208.2c0-33.4,27.1-60.5,60.5-60.5s60.5,27.1,60.5,60.5V2116C3114.3,2149.5,3087.3,2176.5,3053.8,2176.5z"/></g><g><path d="M3407,659.5h-134.5c-33.4,0-60.5-27.1-60.5-60.5s27.1-60.5,60.5-60.5h68c-28.1-138.7-151-243.5-297.9-243.5H830.5   c-146.9,0-269.8,104.7-297.9,243.5h68c33.4,0,60.5,27.1,60.5,60.5s-27.1,60.5-60.5,60.5H466c-33.4,0-60.5-27.1-60.5-60.5   c0-235.7,191.1-425,425-425h2212c235.4,0,425,190.6,425,425C3467.5,632.4,3440.4,659.5,3407,659.5z"/></g><g><path d="M3053.8,1907.8H819.2c-28.6,0-53.3-20-59.2-48L496.7,611.5c-8-37.2,20.5-73,59.2-73H3317c38.7,0,67.1,35.8,59.2,73   L3113,1859.8C3107.1,1887.8,3082.4,1907.8,3053.8,1907.8z M868.2,1786.8h2136.5l237.7-1127.3H630.5L868.2,1786.8z"/></g><g><path d="M950.2,3458c-33.4,0-60.5-27.1-60.5-60.5V2116c0-33.4,27.1-60.5,60.5-60.5s60.5,27.1,60.5,60.5v1281.5   C1010.7,3430.9,983.6,3458,950.2,3458z"/></g><g><path d="M1232.3,3458c-33.4,0-60.5-27.1-60.5-60.5V2116c0-33.4,27.1-60.5,60.5-60.5s60.5,27.1,60.5,60.5v1281.5   C1292.8,3430.9,1265.7,3458,1232.3,3458z"/></g><g><path d="M2640.7,3458c-33.4,0-60.5-27.1-60.5-60.5V2116c0-33.4,27.1-60.5,60.5-60.5s60.5,27.1,60.5,60.5v1281.5   C2701.2,3430.9,2674.1,3458,2640.7,3458z"/></g><g><path d="M2922.8,3458c-33.4,0-60.5-27.1-60.5-60.5V2116c0-33.4,27.1-60.5,60.5-60.5s60.5,27.1,60.5,60.5v1281.5   C2983.3,3430.9,2956.2,3458,2922.8,3458z"/></g><g><path d="M2301.6,3458h-730.3c-33.4,0-60.5-27.1-60.5-60.5V2116c0-33.4,27.1-60.5,60.5-60.5h730.3c33.4,0,60.5,27.1,60.5,60.5   v1281.5C2362.1,3430.9,2335,3458,2301.6,3458z M1631.9,3337h609.2V2176.5h-609.2L1631.9,3337L1631.9,3337z"/></g><g><path d="M2301.6,2421.2h-730.3c-33.4,0-60.5-27.1-60.5-60.5s27.1-60.5,60.5-60.5h730.3c33.4,0,60.5,27.1,60.5,60.5   C2362.1,2394.1,2335,2421.2,2301.6,2421.2z"/></g><g><path d="M2301.6,2685.3h-730.3c-33.4,0-60.5-27.1-60.5-60.5s27.1-60.5,60.5-60.5h730.3c33.4,0,60.5,27.1,60.5,60.5   S2335,2685.3,2301.6,2685.3z"/></g><g><path d="M2301.6,2949.3h-730.3c-33.4,0-60.5-27.1-60.5-60.5s27.1-60.5,60.5-60.5h730.3c33.4,0,60.5,27.1,60.5,60.5   S2335,2949.3,2301.6,2949.3z"/></g><g><path d="M2301.6,3213.4h-730.3c-33.4,0-60.5-27.1-60.5-60.5s27.1-60.5,60.5-60.5h730.3c33.4,0,60.5,27.1,60.5,60.5   S2335,3213.4,2301.6,3213.4z"/></g><g><path d="M3282.2,3699H590.8c-33.4,0-60.5-27.1-60.5-60.5v-241c0-33.4,27.1-60.5,60.5-60.5h2691.4c33.4,0,60.5,27.1,60.5,60.5v241   C3342.7,3671.9,3315.6,3699,3282.2,3699z M651.3,3578h2570.4v-120H651.3V3578z"/></g><g><path d="M1936.5,1657.7c-177.3,0-321.6-144.3-321.6-321.6c0-142,188.3-410.2,273.4-523.7c24.2-31.8,72.1-31.9,96.4,0   c85.3,113.8,273.4,381.9,273.4,523.7C2258.1,1513.5,2113.8,1657.7,1936.5,1657.7z M1936.5,952c-22.9,32.5-51.4,74.4-79.8,119.5   c-109,173.4-120.8,242.9-120.8,264.7c0,110.6,90,200.5,200.5,200.5s200.5-90,200.5-200.5c0-21.8-11.8-91.2-120.8-264.7   C1987.9,1026.4,1959.4,984.6,1936.5,952z"/></g><text x="0" y="3888" fill="#000000" font-size="5px" font-weight="bold" font-family="'Helvetica Neue', Helvetica, Arial-Unicode, Arial, Sans-serif">Created by Graphixs_Art</text><text x="0" y="3893" fill="#000000" font-size="5px" font-weight="bold" font-family="'Helvetica Neue', Helvetica, Arial-Unicode, Arial, Sans-serif">from the Noun Project</text></svg>